<svg width="37" height="39" viewBox="0 0 37 39" fill="none" xmlns="http://www.w3.org/2000/svg">
<path d="M20.3846 0.751819C21.7225 0.746568 23.0603 0.76032 24.3978 0.793069L24.7535 0.806194C25.1641 0.821194 25.5693 0.839944 26.0588 0.862444C28.0095 0.956194 29.3405 1.27119 30.5083 1.73432C31.7183 2.21057 32.7376 2.85557 33.757 3.89807C34.689 4.83483 35.4103 5.96797 35.8708 7.21869C36.3237 8.41307 36.6316 9.77619 36.7233 11.7712C36.7453 12.2699 36.7636 12.6862 36.7783 13.1062L36.7893 13.4699C36.8219 14.8372 36.8359 16.2048 36.8315 17.5724L36.8333 18.9712V21.4274C36.8378 22.7957 36.8238 24.164 36.7911 25.5318L36.7802 25.8956C36.7655 26.3156 36.7472 26.7299 36.7251 27.2306C36.6335 29.2256 36.3218 30.5868 35.8708 31.7812C35.4118 33.0332 34.6903 34.1673 33.757 35.1037C32.8402 36.0568 31.7317 36.7945 30.5083 37.2656C29.3405 37.7287 28.0095 38.0437 26.0588 38.1374C25.5693 38.1599 25.1641 38.1787 24.7535 38.1937L24.3978 38.2049C23.0604 38.2383 21.7225 38.2527 20.3846 38.2481L19.017 38.2499H16.6171C15.2793 38.2546 13.9414 38.2402 12.604 38.2068L12.2483 38.1956C11.8131 38.1794 11.378 38.1607 10.943 38.1393C8.99231 38.0456 7.66131 37.7268 6.49165 37.2656C5.26823 36.7956 4.16008 36.0577 3.24481 35.1037C2.31173 34.1667 1.58972 33.0329 1.12915 31.7812C0.676313 30.5868 0.368313 29.2256 0.276646 27.2306C0.256228 26.7857 0.237895 26.3407 0.221646 25.8956L0.21248 25.5318C0.17868 24.164 0.1634 22.7957 0.166646 21.4274V17.5724C0.161529 16.2048 0.174975 14.8372 0.20698 13.4699L0.219813 13.1062C0.23448 12.6862 0.252813 12.2699 0.274813 11.7712C0.36648 9.77432 0.674479 8.41494 1.12731 7.21869C1.58816 5.96736 2.31158 4.83453 3.24665 3.89994C4.16129 2.9451 5.26874 2.20602 6.49165 1.73432C7.66131 1.27119 8.99048 0.956194 10.943 0.862444L12.2483 0.806194L12.604 0.796819C13.9408 0.762268 15.2781 0.746641 16.6153 0.749944L20.3846 0.751819ZM18.5 10.1268C17.2854 10.1093 16.0795 10.3387 14.9524 10.8019C13.8253 11.2652 12.7995 11.9528 11.9345 12.825C11.0696 13.6973 10.3827 14.7366 9.91391 15.8826C9.4451 17.0287 9.20368 18.2586 9.20368 19.5009C9.20368 20.7432 9.4451 21.9731 9.91391 23.1191C10.3827 24.2652 11.0696 25.3045 11.9345 26.1767C12.7995 27.0489 13.8253 27.7366 14.9524 28.1998C16.0795 28.663 17.2854 28.8925 18.5 28.8749C20.9311 28.8749 23.2627 27.8872 24.9818 26.1291C26.7009 24.3709 27.6666 21.9863 27.6666 19.4999C27.6666 17.0135 26.7009 14.629 24.9818 12.8708C23.2627 11.1127 20.9311 10.1268 18.5 10.1268ZM18.5 13.8768C19.2306 13.8631 19.9565 13.9983 20.6354 14.2747C21.3143 14.5511 21.9326 14.9631 22.4541 15.4866C22.9756 16.0101 23.3898 16.6346 23.6726 17.3237C23.9555 18.0128 24.1012 18.7526 24.1013 19.4999C24.1014 20.2473 23.9559 20.9871 23.6733 21.6763C23.3907 22.3655 22.9767 22.9901 22.4554 23.5138C21.9341 24.0375 21.316 24.4497 20.6371 24.7263C19.9583 25.003 19.2324 25.1385 18.5018 25.1249C17.0431 25.1249 15.6442 24.5323 14.6127 23.4774C13.5813 22.4225 13.0018 20.9918 13.0018 19.4999C13.0018 18.0081 13.5813 16.5774 14.6127 15.5225C15.6442 14.4676 17.0431 13.8749 18.5018 13.8749L18.5 13.8768ZM28.125 7.31432C27.5335 7.33853 26.9742 7.59585 26.5641 8.03239C26.154 8.46893 25.925 9.05082 25.925 9.65619C25.925 10.2616 26.154 10.8435 26.5641 11.28C26.9742 11.7165 27.5335 11.9739 28.125 11.9981C28.7328 11.9981 29.3157 11.7511 29.7454 11.3116C30.1752 10.8721 30.4166 10.2759 30.4166 9.65432C30.4166 9.03272 30.1752 8.43658 29.7454 7.99704C29.3157 7.5575 28.7328 7.31057 28.125 7.31057V7.31432Z" fill="white"/>
</svg>
