<svg width="129" height="129" viewBox="0 0 129 129" fill="none" xmlns="http://www.w3.org/2000/svg">
<path fill-rule="evenodd" clip-rule="evenodd" d="M65.5869 65.8505C100.446 65.8398 128.5 65.3821 128.5 64.8191C128.5 64.2648 101.308 63.8126 67.2003 63.7885C84.0207 46.9292 97.0812 33.4172 96.8055 33.1415C96.5255 32.8615 82.5934 46.3366 65.3678 63.5358C65.3568 28.6916 64.8993 0.655548 64.3365 0.655548C63.7735 0.655548 63.3158 28.7097 63.3051 63.5695C46.064 46.3542 32.1138 32.8613 31.8336 33.1415C31.5579 33.4172 44.6184 46.9292 61.4389 63.7886C27.3471 63.8129 0.172913 64.265 0.172913 64.8191C0.172913 65.3819 28.2084 65.8395 63.0522 65.8505C45.4612 83.4542 31.5491 97.829 31.8335 98.1134C32.1137 98.3936 46.0644 84.9002 63.3059 67.6845C63.33 101.791 63.7822 128.983 64.3365 128.983C64.8906 128.983 65.3426 101.809 65.367 67.7182C82.593 84.9179 96.5256 98.3934 96.8056 98.1134C97.09 97.829 83.1779 83.4542 65.5869 65.8505Z" fill="#FFD135"/>
</svg>
