<svg width="32" height="28" viewBox="0 0 32 28" fill="none" xmlns="http://www.w3.org/2000/svg">
<path d="M0 1.3125C0 0.585156 0.594444 0 1.33333 0H3.86111C5.08333 0 6.16667 0.7 6.67222 1.75H29.5056C30.9667 1.75 32.0333 3.11719 31.65 4.50625L29.3722 12.8352C28.9 14.5523 27.3167 15.75 25.5111 15.75H9.48333L9.78333 17.3086C9.90556 17.9266 10.4556 18.375 11.0944 18.375H27.1111C27.85 18.375 28.4444 18.9602 28.4444 19.6875C28.4444 20.4148 27.85 21 27.1111 21H11.0944C9.17222 21 7.52222 19.6547 7.16667 17.8008L4.3 2.98047C4.26111 2.77266 4.07778 2.625 3.86111 2.625H1.33333C0.594444 2.625 0 2.03984 0 1.3125ZM7.11111 25.375C7.11111 25.0303 7.18009 24.6889 7.3141 24.3705C7.44811 24.052 7.64454 23.7626 7.89216 23.5188C8.13978 23.2751 8.43375 23.0817 8.75729 22.9498C9.08082 22.8179 9.42759 22.75 9.77778 22.75C10.128 22.75 10.4747 22.8179 10.7983 22.9498C11.1218 23.0817 11.4158 23.2751 11.6634 23.5188C11.911 23.7626 12.1074 24.052 12.2415 24.3705C12.3755 24.6889 12.4444 25.0303 12.4444 25.375C12.4444 25.7197 12.3755 26.0611 12.2415 26.3795C12.1074 26.698 11.911 26.9874 11.6634 27.2312C11.4158 27.4749 11.1218 27.6683 10.7983 27.8002C10.4747 27.9321 10.128 28 9.77778 28C9.42759 28 9.08082 27.9321 8.75729 27.8002C8.43375 27.6683 8.13978 27.4749 7.89216 27.2312C7.64454 26.9874 7.44811 26.698 7.3141 26.3795C7.18009 26.0611 7.11111 25.7197 7.11111 25.375ZM25.7778 22.75C26.485 22.75 27.1633 23.0266 27.6634 23.5188C28.1635 24.0111 28.4444 24.6788 28.4444 25.375C28.4444 26.0712 28.1635 26.7389 27.6634 27.2312C27.1633 27.7234 26.485 28 25.7778 28C25.0705 28 24.3923 27.7234 23.8922 27.2312C23.3921 26.7389 23.1111 26.0712 23.1111 25.375C23.1111 24.6788 23.3921 24.0111 23.8922 23.5188C24.3923 23.0266 25.0705 22.75 25.7778 22.75Z" fill="black"/>
</svg>
