<svg width="47" height="48" viewBox="0 0 47 48" fill="none" xmlns="http://www.w3.org/2000/svg">
<g clip-path="url(#clip0_124_19)">
<path d="M39.14 13.68C33.62 4.8 22.35 2.16 13.61 7.68C5.09998 13.2 2.33998 25.2 7.85998 34.08L8.31998 34.8L6.47998 42L13.38 40.08L14.07 40.56C17.06 42.24 20.28 43.2 23.5 43.2C26.95 43.2 30.4 42.24 33.39 40.32C41.9 34.56 44.43 22.8 39.14 13.68ZM34.31 32.16C33.39 33.6 32.24 34.56 30.63 34.8C29.71 34.8 28.56 35.28 23.96 33.36C20.05 31.44 16.83 28.32 14.53 24.72C13.15 23.04 12.46 20.88 12.23 18.72C12.23 16.8 12.92 15.12 14.07 13.92C14.53 13.44 14.99 13.2 15.45 13.2H16.6C17.06 13.2 17.52 13.2 17.75 14.16C18.21 15.36 19.36 18.24 19.36 18.48C19.59 18.72 19.59 19.2 19.36 19.44C19.59 19.92 19.36 20.4 19.13 20.64C18.9 20.88 18.67 21.36 18.44 21.6C17.98 21.84 17.75 22.32 17.98 22.8C18.9 24.24 20.05 25.68 21.2 26.88C22.58 28.08 23.96 29.04 25.57 29.76C26.03 30 26.49 30 26.72 29.52C26.95 29.04 28.1 27.84 28.56 27.36C29.02 26.88 29.25 26.88 29.71 27.12L33.39 29.04C33.85 29.28 34.31 29.52 34.54 29.76C34.77 30.48 34.77 31.44 34.31 32.16Z" fill="white"/>
</g>
<defs>
<clipPath id="clip0_124_19">
<rect width="46" height="48" fill="white" transform="translate(0.5)"/>
</clipPath>
</defs>
</svg>
