<svg width="12" height="12" viewBox="0 0 12 12" fill="none" xmlns="http://www.w3.org/2000/svg">
<path fill-rule="evenodd" clip-rule="evenodd" d="M8.06229 6C8.06229 5.90054 8.02278 5.80516 7.95246 5.73483C7.88213 5.66451 7.78675 5.625 7.68729 5.625H2.20079L3.18129 4.785C3.21872 4.75296 3.24947 4.71386 3.27178 4.66993C3.2941 4.626 3.30754 4.57811 3.31135 4.52899C3.31516 4.47987 3.30925 4.43048 3.29397 4.38364C3.27869 4.3368 3.25433 4.29343 3.22229 4.256C3.19025 4.21857 3.15115 4.18782 3.10722 4.16551C3.0633 4.14319 3.0154 4.12975 2.96628 4.12594C2.91716 4.12213 2.86777 4.12804 2.82093 4.14332C2.77409 4.1586 2.73072 4.18296 2.69329 4.215L0.943291 5.715C0.902123 5.7502 0.869071 5.79391 0.846409 5.84311C0.823747 5.89231 0.812012 5.94583 0.812012 6C0.812012 6.05417 0.823747 6.10769 0.846409 6.15689C0.869071 6.20609 0.902123 6.24979 0.943291 6.285L2.69329 7.785C2.76888 7.84971 2.86708 7.88175 2.96628 7.87406C3.06549 7.86637 3.15758 7.81959 3.22229 7.744C3.287 7.66841 3.31904 7.57021 3.31135 7.47101C3.30366 7.3718 3.25688 7.27971 3.18129 7.215L2.20129 6.375H7.68729C7.78675 6.375 7.88213 6.33549 7.95246 6.26516C8.02278 6.19484 8.06229 6.09945 8.06229 6Z" fill="black"/>
<path d="M4.6875 4C4.6875 4.351 4.6875 4.5265 4.772 4.653C4.80839 4.70739 4.85511 4.75411 4.9095 4.7905C5.036 4.875 5.2115 4.875 5.5625 4.875H7.6875C7.98587 4.875 8.27202 4.99353 8.483 5.2045C8.69397 5.41548 8.8125 5.70163 8.8125 6C8.8125 6.29837 8.69397 6.58452 8.483 6.7955C8.27202 7.00647 7.98587 7.125 7.6875 7.125H5.5625C5.2115 7.125 5.036 7.125 4.9095 7.209C4.85506 7.24554 4.80834 7.29243 4.772 7.347C4.6875 7.4735 4.6875 7.649 4.6875 8C4.6875 9.414 4.6875 10.1215 5.127 10.5605C5.566 11 6.273 11 7.687 11H8.187C9.602 11 10.3085 11 10.748 10.5605C11.1875 10.1215 11.1875 9.414 11.1875 8V4C11.1875 2.586 11.1875 1.8785 10.748 1.4395C10.3085 1 9.6015 1 8.1875 1H7.6875C6.273 1 5.566 1 5.127 1.4395C4.6875 1.8785 4.6875 2.586 4.6875 4Z" fill="black"/>
</svg>
