<svg width="11" height="12" viewBox="0 0 11 12" fill="none" xmlns="http://www.w3.org/2000/svg">
<path d="M1.16667 11.8334C1.0132 11.8334 0.88446 11.7774 0.78046 11.6654C0.67646 11.5534 0.624641 11.4149 0.625002 11.25V8.91669C0.625002 8.59585 0.731169 8.3211 0.943502 8.09244C1.15584 7.86377 1.41078 7.74963 1.70834 7.75002H9.29167C9.58958 7.75002 9.84471 7.86435 10.057 8.09302C10.2694 8.32169 10.3754 8.59624 10.375 8.91669V11.25C10.375 11.4153 10.323 11.5539 10.219 11.6659C10.115 11.7779 9.98645 11.8337 9.83333 11.8334H1.16667ZM1.70834 6.58335V4.83335C1.70834 4.51252 1.8145 4.23777 2.02684 4.0091C2.23917 3.78044 2.49411 3.6663 2.79167 3.66669H4.95833V2.82085C4.79584 2.70419 4.66493 2.56321 4.56563 2.39794C4.46632 2.23266 4.41667 2.03335 4.41667 1.80002C4.41667 1.65419 4.44375 1.51069 4.49792 1.36952C4.55208 1.22835 4.63334 1.09963 4.74167 0.983354L5.5 0.166687L6.25833 0.983354C6.36667 1.10002 6.44792 1.22874 6.50209 1.36952C6.55625 1.5103 6.58333 1.6538 6.58333 1.80002C6.58333 2.03335 6.53368 2.23266 6.43438 2.39794C6.33507 2.56321 6.20417 2.70419 6.04167 2.82085V3.66669H8.20833C8.50625 3.66669 8.76138 3.78083 8.97371 4.0091C9.18604 4.23738 9.29203 4.51213 9.29167 4.83335V6.58335H1.70834Z" fill="black"/>
</svg>
