<svg width="36" height="36" viewBox="0 0 36 36" fill="none" xmlns="http://www.w3.org/2000/svg">
<path d="M14.083 4.23657C15.543 0.768722 20.457 0.76872 21.917 4.23656L23.9252 9.00647C24.508 10.3907 25.6093 11.492 26.9935 12.0748L31.7634 14.083C35.2313 15.543 35.2313 20.457 31.7634 21.917L26.9935 23.9252C25.6093 24.508 24.508 25.6093 23.9252 26.9935L21.917 31.7634C20.457 35.2313 15.543 35.2313 14.083 31.7634L12.0748 26.9935C11.492 25.6093 10.3907 24.508 9.00648 23.9252L4.23657 21.917C0.768722 20.457 0.76872 15.543 4.23656 14.083L9.00647 12.0748C10.3907 11.492 11.492 10.3907 12.0748 9.00648L14.083 4.23657Z" stroke="#FEFCFC" stroke-width="1.5"/>
</svg>
