<svg width="37" height="37" viewBox="0 0 37 37" fill="none" xmlns="http://www.w3.org/2000/svg">
<path d="M5.71593 0.5625C2.89544 0.5625 0.602295 2.86074 0.602295 5.6875V31.3125C0.602295 34.1393 2.89544 36.4375 5.71593 36.4375H31.2841C34.1046 36.4375 36.3977 34.1393 36.3977 31.3125V5.6875C36.3977 2.86074 34.1046 0.5625 31.2841 0.5625H5.71593ZM29.4544 7.28906L21.1607 16.7863L30.9166 29.7109H23.2781L17.3015 21.8713L10.454 29.7109H6.65876L15.5277 19.549L6.17136 7.28906H14.0016L19.4109 14.4561L25.6591 7.28906H29.4544ZM26.4341 27.4367L12.859 9.44316H10.5979L24.3248 27.4367H26.4262H26.4341Z" fill="white"/>
</svg>
