<svg width="13" height="14" viewBox="0 0 13 14" fill="none" xmlns="http://www.w3.org/2000/svg">
<path d="M2.16667 12.8334C2.0132 12.8334 1.88446 12.7774 1.78046 12.6654C1.67646 12.5534 1.62464 12.4149 1.625 12.25V9.91669C1.625 9.59585 1.73117 9.3211 1.9435 9.09244C2.15584 8.86377 2.41078 8.74963 2.70834 8.75002H10.2917C10.5896 8.75002 10.8447 8.86435 11.057 9.09302C11.2694 9.32169 11.3754 9.59624 11.375 9.91669V12.25C11.375 12.4153 11.323 12.5539 11.219 12.6659C11.115 12.7779 10.9864 12.8337 10.8333 12.8334H2.16667ZM2.70834 7.58335V5.83335C2.70834 5.51252 2.8145 5.23777 3.02684 5.0091C3.23917 4.78044 3.49411 4.6663 3.79167 4.66669H5.95833V3.82085C5.79584 3.70419 5.66493 3.56321 5.56563 3.39794C5.46632 3.23266 5.41667 3.03335 5.41667 2.80002C5.41667 2.65419 5.44375 2.51069 5.49792 2.36952C5.55208 2.22835 5.63334 2.09963 5.74167 1.98335L6.5 1.16669L7.25833 1.98335C7.36667 2.10002 7.44792 2.22874 7.50209 2.36952C7.55625 2.5103 7.58333 2.6538 7.58333 2.80002C7.58333 3.03335 7.53368 3.23266 7.43438 3.39794C7.33507 3.56321 7.20417 3.70419 7.04167 3.82085V4.66669H9.20833C9.50625 4.66669 9.76138 4.78083 9.97371 5.0091C10.186 5.23738 10.292 5.51213 10.2917 5.83335V7.58335H2.70834Z" fill="black"/>
</svg>
